<svg xmlns="http://www.w3.org/2000/svg" viewBox="0 0 512 512"><rect width="512" height="512" fill="#1f2a6b"/><g transform="translate(0 0) scale(4.266666666666667)"><rect width="120" height="120" rx="20" fill="#f4f5f1"/><path fill="#1f2a6b" d="M14 120c0-30 18-46 46-46s46 16 46 46z"/><path d="M22 112c10-20 26-28 38-28s28 8 38 28" fill="none" style="stroke:#f4f5f1;stroke-width:2.2;stroke-dasharray:5 4;stroke-linecap:round"/><path d="M30 118c8-12 18-18 30-18s22 6 30 18" fill="none" style="stroke:#b3303a;stroke-width:2.2;stroke-dasharray:5 4;stroke-linecap:round"/><circle cx="60" cy="18" r="11" style="fill:#dfe2f1;stroke:#20222b;stroke-width:2"/><ellipse fill="#c68a5e" cx="60" cy="52" rx="24" ry="27"/><path d="M34 48C32 20 88 20 86 48c-6-14-22-20-26-20s-20 6-26 20z" style="fill:#dfe2f1;stroke:#20222b;stroke-width:2"/><g fill="none" style="stroke:#20222b;stroke-width:2.6"><circle cx="49" cy="52" r="7.500"/><circle cx="71" cy="52" r="7.500"/><path d="M56.500 52h7"/></g><g fill="#20222b"><circle cx="49" cy="52" r="2.200"/><circle cx="71" cy="52" r="2.200"/></g><path d="M50 66c6 7 14 7 20 0" fill="none" style="stroke:#20222b;stroke-width:3;stroke-linecap:round"/><path fill="#b3303a" d="M58 36h4l-2 5z" opacity="0"/><circle cx="40" cy="62" r="4" style="fill:#b3303a;opacity:.25"/><circle cx="80" cy="62" r="4" style="fill:#b3303a;opacity:.25"/></g></svg>